<svg version="1.1" viewBox="0.0 0.0 791.3202099737533 606.2257217847769" fill="none" stroke="none" stroke-linecap="square" stroke-miterlimit="10" xmlns:xlink="http://www.w3.org/1999/xlink" xmlns="http://www.w3.org/2000/svg"><clipPath id="p.0"><path d="m0 0l791.3202 0l0 606.2257l-791.3202 0l0 -606.2257z" clip-rule="nonzero"/></clipPath><g clip-path="url(#p.0)"><path fill="#000000" fill-opacity="0.0" d="m0 0l791.3202 0l0 606.2257l-791.3202 0z" fill-rule="evenodd"/><path fill="#000000" fill-opacity="0.0" d="m391.56314 20.650919l328.06284 143.44093l0 286.8819l-328.06284 143.44092l-328.06284 -143.44092l0 -286.8819z" fill-rule="evenodd"/><path stroke="#4997c8" stroke-width="16.0" stroke-linejoin="round" stroke-linecap="butt" d="m391.56314 20.650919l328.06284 143.44093l0 286.8819l-328.06284 143.44092l-328.06284 -143.44092l0 -286.8819z" fill-rule="evenodd"/><path fill="#000000" fill-opacity="0.0" d="m19.533573 155.54396l-1.8267727 292.44092" fill-rule="evenodd"/><path stroke="#4997c8" stroke-width="16.0" stroke-linejoin="round" stroke-linecap="butt" d="m19.533573 155.54396l-1.8267727 292.44092" fill-rule="evenodd"/><path fill="#000000" fill-opacity="0.0" d="m765.52496 159.41875l-0.1260376 287.27557" fill-rule="evenodd"/><path stroke="#4997c8" stroke-width="16.0" stroke-linejoin="round" stroke-linecap="butt" d="m765.52496 159.41875l-0.1260376 287.27557" fill-rule="evenodd"/><path fill="#4997c8" d="m332.09564 304.1681l0 0c0 -30.84967 26.369385 -55.858276 58.897644 -55.858276l0 0c15.620605 0 30.60147 5.8850555 41.64691 16.360504c11.045441 10.475464 17.250732 24.683228 17.250732 39.497772l0 0c0 30.84967 -26.369385 55.858246 -58.897644 55.858246l0 0c-32.52826 0 -58.897644 -25.008575 -58.897644 -55.858246z" fill-rule="evenodd"/><path stroke="#ffffff" stroke-width="1.0" stroke-linejoin="round" stroke-linecap="butt" d="m332.09564 304.1681l0 0c0 -30.84967 26.369385 -55.858276 58.897644 -55.858276l0 0c15.620605 0 30.60147 5.8850555 41.64691 16.360504c11.045441 10.475464 17.250732 24.683228 17.250732 39.497772l0 0c0 30.84967 -26.369385 55.858246 -58.897644 55.858246l0 0c-32.52826 0 -58.897644 -25.008575 -58.897644 -55.858246z" fill-rule="evenodd"/><path fill="#4997c8" d="m427.5955 397.09357l0 0c0 -13.550537 12.698181 -24.53543 28.362183 -24.53543l0 0c15.664032 0 28.362213 10.984894 28.362213 24.53543l0 0c0 13.550537 -12.698181 24.53543 -28.362213 24.53543l0 0c-15.664001 0 -28.362183 -10.984894 -28.362183 -24.53543z" fill-rule="evenodd"/><path stroke="#ffffff" stroke-width="1.0" stroke-linejoin="round" stroke-linecap="butt" d="m427.5955 397.09357l0 0c0 -13.550537 12.698181 -24.53543 28.362183 -24.53543l0 0c15.664032 0 28.362213 10.984894 28.362213 24.53543l0 0c0 13.550537 -12.698181 24.53543 -28.362213 24.53543l0 0c-15.664001 0 -28.362183 -10.984894 -28.362183 -24.53543z" fill-rule="evenodd"/><path fill="#4997c8" d="m254.05643 384.56393l0 0c0 -13.550537 12.698181 -24.53543 28.362213 -24.53543l0 0c15.664001 0 28.362213 10.984894 28.362213 24.53543l0 0c0 13.550568 -12.698212 24.53543 -28.362213 24.53543l0 0c-15.664032 0 -28.362213 -10.984863 -28.362213 -24.53543z" fill-rule="evenodd"/><path stroke="#ffffff" stroke-width="1.0" stroke-linejoin="round" stroke-linecap="butt" d="m254.05643 384.56393l0 0c0 -13.550537 12.698181 -24.53543 28.362213 -24.53543l0 0c15.664001 0 28.362213 10.984894 28.362213 24.53543l0 0c0 13.550568 -12.698212 24.53543 -28.362213 24.53543l0 0c-15.664032 0 -28.362213 -10.984863 -28.362213 -24.53543z" fill-rule="evenodd"/><path fill="#4997c8" d="m474.15067 322.70734l0 0c0 -13.550568 12.698181 -24.53543 28.362213 -24.53543l0 0c15.664001 0 28.362183 10.984863 28.362183 24.53543l0 0c0 13.550537 -12.698181 24.53543 -28.362183 24.53543l0 0c-15.664032 0 -28.362213 -10.984894 -28.362213 -24.53543z" fill-rule="evenodd"/><path stroke="#ffffff" stroke-width="1.0" stroke-linejoin="round" stroke-linecap="butt" d="m474.15067 322.70734l0 0c0 -13.550568 12.698181 -24.53543 28.362213 -24.53543l0 0c15.664001 0 28.362183 10.984863 28.362183 24.53543l0 0c0 13.550537 -12.698181 24.53543 -28.362183 24.53543l0 0c-15.664032 0 -28.362213 -10.984894 -28.362213 -24.53543z" fill-rule="evenodd"/><path fill="#4997c8" d="m427.5955 217.59528l0 0c0 -13.550537 12.698181 -24.53543 28.362183 -24.53543l0 0c15.664032 0 28.362213 10.984894 28.362213 24.53543l0 0c0 13.550552 -12.698181 24.535446 -28.362213 24.535446l0 0c-15.664001 0 -28.362183 -10.984894 -28.362183 -24.535446z" fill-rule="evenodd"/><path stroke="#ffffff" stroke-width="1.0" stroke-linejoin="round" stroke-linecap="butt" d="m427.5955 217.59528l0 0c0 -13.550537 12.698181 -24.53543 28.362183 -24.53543l0 0c15.664032 0 28.362213 10.984894 28.362213 24.53543l0 0c0 13.550552 -12.698181 24.535446 -28.362213 24.535446l0 0c-15.664001 0 -28.362183 -10.984894 -28.362183 -24.535446z" fill-rule="evenodd"/><path fill="#4997c8" d="m262.2813 206.43307l0 0c0 -13.550552 12.698181 -24.53543 28.362183 -24.53543l0 0c15.664032 0 28.362213 10.984879 28.362213 24.53543l0 0c0 13.550537 -12.698181 24.53543 -28.362213 24.53543l0 0c-15.664001 0 -28.362183 -10.984894 -28.362183 -24.53543z" fill-rule="evenodd"/><path stroke="#ffffff" stroke-width="1.0" stroke-linejoin="round" stroke-linecap="butt" d="m262.2813 206.43307l0 0c0 -13.550552 12.698181 -24.53543 28.362183 -24.53543l0 0c15.664032 0 28.362213 10.984879 28.362213 24.53543l0 0c0 13.550537 -12.698181 24.53543 -28.362213 24.53543l0 0c-15.664001 0 -28.362183 -10.984894 -28.362183 -24.53543z" fill-rule="evenodd"/><path fill="#000000" fill-opacity="0.0" d="m412.71738 312.21384l88.346466 8.472443" fill-rule="evenodd"/><path stroke="#4997c8" stroke-width="16.0" stroke-linejoin="round" stroke-linecap="butt" d="m412.71738 312.21384l88.346466 8.472443" fill-rule="evenodd"/><path fill="#000000" fill-opacity="0.0" d="m385.07025 296.34l74.17325 104.409454" fill-rule="evenodd"/><path stroke="#4997c8" stroke-width="16.0" stroke-linejoin="round" stroke-linecap="butt" d="m385.07025 296.34l74.17325 104.409454" fill-rule="evenodd"/><path fill="#000000" fill-opacity="0.0" d="m461.3972 215.94536l-78.20474 98.96062" fill-rule="evenodd"/><path stroke="#4997c8" stroke-width="16.0" stroke-linejoin="round" stroke-linecap="butt" d="m461.3972 215.94536l-78.20474 98.96062" fill-rule="evenodd"/><path fill="#000000" fill-opacity="0.0" d="m395.97272 307.8255l-116.6929 80.409454" fill-rule="evenodd"/><path stroke="#4997c8" stroke-width="16.0" stroke-linejoin="round" stroke-linecap="butt" d="m395.97272 307.8255l-116.6929 80.409454" fill-rule="evenodd"/><path fill="#000000" fill-opacity="0.0" d="m295.65417 210.49059l98.11026 97.354324" fill-rule="evenodd"/><path stroke="#4997c8" stroke-width="16.0" stroke-linejoin="round" stroke-linecap="butt" d="m295.65417 210.49059l98.11026 97.354324" fill-rule="evenodd"/></g></svg>